<svg width="140" height="40" viewBox="0 0 140 40" fill="none" xmlns="http://www.w3.org/2000/svg">
<g clip-path="url(#clip0_7656_116345)">
<path d="M5.39345 36.6728L0.967972 33.5738L7.28594 26.8351L0 24.0926L2.5362 19.1076L9.82214 21.8501L11.2053 13.8577H17.0164L15.6332 21.8501L23.8404 19.1076L24.806 24.2282L16.4587 27.1462L20.5165 33.5714L15.4908 36.6705L11.4314 29.9318L5.39345 36.6728Z" fill="#343A3F"/>
<path d="M46.8679 35.3408C46.7424 36.1283 46.4528 36.506 46.044 36.6776C44.4726 37.3528 42.7728 37.6982 41.0553 37.6915C34.5603 37.6915 30.8421 32.4573 31.7819 26.3494C32.8577 19.9374 38.4121 14.8772 45.0865 14.8772C46.7222 14.8537 48.3326 15.2713 49.7397 16.0839C49.8081 16.1246 49.8627 16.1841 49.8966 16.2549C49.9306 16.3257 49.9423 16.4046 49.9304 16.4819L49.03 22.1134C48.5381 21.4553 47.891 20.9219 47.1433 20.5581C46.3956 20.1942 45.569 20.0107 44.7333 20.0228C41.1929 20.0228 38.6414 23.2511 38.1481 26.3917C37.5664 29.7508 39.4026 32.5427 42.9421 32.5427C44.7226 32.4747 46.4076 31.7404 47.646 30.4929L46.8679 35.3408Z" fill="#343A3F"/>
<path d="M57.1024 36.993H50.8311L56.8344 0H63.1057L57.1024 36.993Z" fill="#343A3F"/>
<path d="M71.6468 15.5747L69.7648 27.1793C69.4067 29.6225 69.2731 32.5452 72.5005 32.5452C75.682 32.5452 76.5768 29.6225 76.9348 27.1793L78.8169 15.5747H85.093L83.0323 28.1823C82.0016 34.4649 78.2383 37.6917 71.6532 37.6917C65.0681 37.6917 62.2914 34.4649 63.3213 28.1823L65.3819 15.5747H71.6468Z" fill="#343A3F"/>
<path d="M100.402 20.6358C100.024 20.1903 99.5524 19.8278 99.0196 19.572C98.4868 19.3162 97.9046 19.173 97.311 19.1517C96.7663 19.1541 96.2386 19.3368 95.8145 19.6699C95.3905 20.0029 95.0954 20.4665 94.9776 20.9845C94.7547 22.5516 96.8596 23.0351 99.0104 23.9511C101.116 24.8678 103.132 26.3942 102.551 30.1028C101.746 34.8137 97.4011 37.6925 92.7391 37.6925C91.333 37.7252 89.9409 37.4151 88.6892 36.7904C87.4375 36.1657 86.366 35.2462 85.5723 34.1155L89.0225 30.4962C90.0525 31.8486 91.4413 32.9824 93.2782 32.9824C93.9614 32.9964 94.627 32.7705 95.1533 32.3461C95.6797 31.9218 96.0317 31.3272 96.1451 30.6709C96.5032 28.8382 94.2631 28.3578 92.2925 27.4426C90.2753 26.5259 88.2598 25.2612 88.8423 21.815C89.0964 19.8962 90.0599 18.1334 91.5526 16.8566C93.0453 15.5799 94.9647 14.8768 96.9514 14.8789C99.2848 14.8789 102.101 15.5763 103.671 17.1042L100.402 20.6358Z" fill="#343A3F"/>
<path d="M113.44 36.9953H107.164L109.807 20.7238H107.662L108.467 15.5749H110.618L111.824 8.33398H118.096L116.889 15.5749H120.741L119.937 20.7238H116.084L113.44 36.9953Z" fill="#343A3F"/>
<path d="M131.447 17.7989H131.537C132.235 16.9018 133.134 16.172 134.166 15.6654C135.198 15.1588 136.335 14.8889 137.491 14.8762C138.354 14.8898 139.207 15.0673 140 15.3989L138.297 21.0703C137.593 20.5414 136.723 20.2648 135.834 20.2868C131.578 20.2868 130.413 24.0385 129.92 27.353L128.351 36.9908H122.08L125.53 15.5705H131.806L131.447 17.7989Z" fill="#343A3F"/>
</g>
<defs>
<clipPath id="clip0_7656_116345">
<rect width="140" height="40" fill="white"/>
</clipPath>
</defs>
</svg>
